<svg width="161" height="26" viewBox="0 0 161 26" fill="none" xmlns="http://www.w3.org/2000/svg">
<path d="M7.66556 0.463799C5.84664 0.58208 4.12368 1.28375 2.75122 2.4679C2.45895 2.72021 2.02507 3.16344 1.78858 3.45394C0.86531 4.58415 0.278321 5.90259 0.0708111 7.31342C0.00765591 7.74409 0 7.86612 0 8.43963C0 8.98271 0.00519525 9.07001 0.0519465 9.44915C0.336555 11.7243 1.65571 13.8047 3.6291 15.0922C4.47527 15.6449 5.35835 16.0192 6.33849 16.2432C7.3569 16.4761 8.38898 16.5143 9.36064 16.3541C9.99684 16.2494 10.5193 16.1079 11.4932 15.7779C12.0473 15.591 12.3456 15.5085 12.7732 15.426C13.875 15.2142 15.0591 15.2252 16.2076 15.458C17.0792 15.634 17.9569 15.9552 18.6805 16.3615C18.7287 16.3885 18.7918 16.4243 18.8197 16.4403C18.8968 16.4822 19.3359 16.7676 19.3662 16.7935C19.3802 16.8072 19.4206 16.8368 19.4545 16.86C19.4901 16.8835 19.5243 16.9081 19.5319 16.9156C19.5393 16.9217 19.5647 16.9412 19.5874 16.9585C19.6104 16.9759 19.6355 16.9954 19.6432 17.0015C19.6508 17.009 19.6774 17.0298 19.7014 17.0496C19.9278 17.2306 20.3097 17.606 20.4678 17.8017C20.4894 17.829 20.5323 17.8818 20.5626 17.9187C20.7625 18.1624 21.037 18.6241 21.1534 18.9098C21.2863 19.2385 21.3798 19.5917 21.4028 19.8515C21.4063 19.8958 21.4154 19.9647 21.423 20.0053C21.4293 20.0459 21.4471 20.158 21.4607 20.2541C21.4747 20.35 21.4938 20.4659 21.505 20.5126C21.5151 20.5582 21.5318 20.6381 21.5419 20.6885C21.5594 20.7796 21.5898 20.8979 21.6278 21.0332C21.6393 21.0703 21.6633 21.1539 21.6808 21.218C21.7 21.2821 21.7202 21.3459 21.7265 21.3595C21.7505 21.4124 21.8137 21.607 21.8137 21.6268C21.8137 21.6391 21.8175 21.6489 21.8238 21.6489C21.829 21.6489 21.8492 21.6919 21.8695 21.7448C21.9693 22.0083 22.1768 22.4294 22.3312 22.6817C22.3728 22.7519 22.4083 22.8096 22.4083 22.8109C22.4083 22.8157 22.6221 23.1273 22.65 23.1618C22.6637 23.1791 22.7181 23.2491 22.7714 23.3169C22.8245 23.3847 22.9106 23.4891 22.9636 23.5508C23.07 23.6763 23.4861 24.0837 23.6099 24.1846C23.6542 24.2218 23.7048 24.2647 23.7201 24.2794C23.7365 24.2954 23.7529 24.308 23.7554 24.308C23.7592 24.308 23.8199 24.351 23.8921 24.4028C24.2133 24.6377 24.4258 24.767 24.7675 24.9357C25.0671 25.0823 25.2342 25.1498 25.5453 25.2508C26.5432 25.5746 27.5843 25.6336 28.7963 25.4331C28.9833 25.4022 29.354 25.3162 29.5361 25.2596C29.7792 25.1843 29.9993 25.1093 30.0673 25.0772C30.0889 25.0673 30.18 25.0281 30.2699 24.9899C30.4608 24.9085 30.5999 24.8385 30.82 24.7141C30.9794 24.6241 31.3006 24.4212 31.3261 24.394C31.3299 24.3902 31.3526 24.3731 31.3767 24.3571C31.5576 24.2364 32.0243 23.8068 32.2127 23.5876C32.3746 23.3994 32.5747 23.1372 32.6556 23.0053C32.8199 22.7396 32.9845 22.4331 33.0602 22.2521C33.145 22.0452 33.2462 21.7731 33.2691 21.6858C33.2792 21.6489 33.3006 21.5736 33.3183 21.5194C33.3867 21.2992 33.4753 20.8191 33.4955 20.5654C33.5004 20.515 33.5094 20.4287 33.5157 20.3748C33.5234 20.3179 33.5258 20.0755 33.522 19.8024C33.5182 19.4181 33.5119 19.2937 33.4903 19.1437C33.4764 19.0414 33.4613 18.9197 33.4575 18.8729C33.4537 18.8249 33.4449 18.7693 33.4386 18.7496C33.4334 18.7288 33.4209 18.6684 33.4132 18.6142C33.4044 18.56 33.3954 18.5047 33.393 18.4911C33.3891 18.4778 33.379 18.4137 33.3675 18.3496C33.3574 18.2855 33.3438 18.2129 33.3372 18.1897C33.3298 18.1662 33.3197 18.1072 33.3131 18.0605C33.3068 18.0124 33.2918 17.9187 33.2817 17.8511C33.2716 17.7833 33.2563 17.6616 33.2489 17.5801C33.2412 17.4989 33.2322 17.4127 33.2287 17.3895C33.2172 17.307 33.2133 16.3356 33.2235 16.2507C33.2297 16.2027 33.2437 16.0734 33.2552 15.9613C33.2664 15.8494 33.2817 15.7373 33.2893 15.7114C33.2956 15.6844 33.3096 15.6179 33.3197 15.5637C33.3651 15.309 33.3853 15.218 33.4422 15.0319C33.4537 14.9974 33.4764 14.92 33.4955 14.8597C33.5133 14.798 33.5335 14.7376 33.5384 14.7243C33.5674 14.6602 33.6029 14.5654 33.6029 14.5569C33.6029 14.5507 33.6131 14.5224 33.627 14.4928C33.6396 14.4645 33.6713 14.3905 33.6978 14.3302C33.7763 14.1481 33.9521 13.8133 34.0672 13.6285C34.1672 13.4696 34.3302 13.2309 34.3479 13.2163C34.3518 13.2125 34.3898 13.1658 34.4302 13.1116C34.4959 13.0254 34.6074 12.8937 34.7351 12.7485C34.8045 12.6697 35.2272 12.262 35.3158 12.1883C35.365 12.1477 35.4142 12.1045 35.4271 12.0922C35.4396 12.0812 35.456 12.0714 35.4623 12.0714C35.47 12.0714 35.4752 12.0663 35.4752 12.0615C35.4752 12.0431 35.8836 11.7427 36.11 11.5937C36.3402 11.4434 36.3768 11.4212 36.5767 11.3069C36.8588 11.1443 36.8651 11.1406 37.1815 10.9868C37.7329 10.7195 38.292 10.5017 38.9536 10.2985C39.2142 10.2197 39.2432 10.2101 39.3659 10.1583C39.4091 10.141 39.4468 10.1263 39.4507 10.1263C39.4545 10.1263 39.5393 10.0894 39.6393 10.0451C40.0833 9.84432 40.4108 9.63499 40.7739 9.31993C40.9041 9.20672 41.1635 8.92717 41.2103 8.84734C41.2166 8.83612 41.2319 8.81877 41.242 8.80649C41.271 8.77712 41.4241 8.53575 41.4823 8.42735C41.6023 8.20227 41.7098 7.9115 41.7631 7.66426C41.82 7.39939 41.8301 7.28619 41.8301 6.95644C41.8301 6.62403 41.82 6.52551 41.7606 6.25477C41.5681 5.39529 41.047 4.6517 40.2895 4.15561C39.4747 3.62268 38.4186 3.45393 37.48 3.70758C37.0297 3.8296 36.5578 4.06456 36.1961 4.34892C35.6458 4.77986 35.231 5.38194 35.0399 6.02194C34.9399 6.36183 34.9196 6.51696 34.9057 7.06084C34.8945 7.51902 34.8753 7.77239 34.8286 8.07037C34.7211 8.76483 34.4833 9.45049 34.1404 10.0585C34.018 10.2763 33.823 10.5767 33.6992 10.7369C33.5562 10.9214 33.4826 11.01 33.326 11.1849C33.2259 11.2981 32.8566 11.6565 32.7365 11.7598C32.6556 11.8287 32.4265 12.0134 32.3128 12.1007C32.2154 12.1747 31.9358 12.3643 31.8004 12.4481C31.6574 12.5368 31.4021 12.6868 31.3955 12.6868C31.3931 12.6868 31.3602 12.7042 31.3236 12.725C31.2553 12.7645 30.8189 12.9797 30.6937 13.0352C30.2016 13.2544 29.6285 13.4512 29.0366 13.6026C28.1005 13.8426 27.1114 13.9609 25.5833 14.0175C25.1505 14.0336 24.0895 14.0261 23.7491 14.0053C22.355 13.9179 21.2685 13.7172 20.2958 13.3677C19.0548 12.9207 18.1253 12.2681 17.4675 11.382C17.0284 10.7887 16.7085 10.0462 16.553 9.25212C16.486 8.91116 16.4619 8.7093 16.4176 8.14433C16.3974 7.87706 16.334 7.44025 16.2722 7.14228C15.7434 4.57907 14.0598 2.38674 11.7575 1.264C11.0303 0.909425 10.2661 0.666985 9.49953 0.550039C9.40985 0.535354 9.31881 0.521738 9.29721 0.518C8.92293 0.460061 8.13226 0.433094 7.66556 0.463799ZM7.67814 1.84125C8.27142 1.87463 8.81275 1.99291 9.3415 2.2033C10.8291 2.79791 11.9473 4.05362 12.3393 5.56884C12.4544 6.0134 12.4848 6.27426 12.4848 6.80238C12.4837 7.25682 12.4673 7.42904 12.3888 7.79963C12.1307 9.01822 11.3983 10.1065 10.3471 10.8303C9.6324 11.324 8.80509 11.6244 7.91217 11.7168C7.81593 11.7267 7.6087 11.7328 7.38095 11.7315C6.98863 11.7304 6.7751 11.7131 6.44867 11.6516C5.42779 11.4631 4.50562 10.9793 3.76826 10.248C3.05988 9.54394 2.59182 8.67005 2.40454 7.70111C2.30721 7.19514 2.29464 6.58345 2.37174 6.07001C2.48301 5.33389 2.75122 4.65437 3.17252 4.03867C3.6671 3.3175 4.32599 2.74986 5.12432 2.3595C5.74275 2.05806 6.38278 1.88931 7.09006 1.84259C7.31643 1.8279 7.43536 1.8279 7.67814 1.84125ZM28.6 15.3274C29.0744 15.3864 29.4653 15.5085 29.8587 15.7189C30.0206 15.8051 30.0094 15.7976 30.1852 15.917C30.3457 16.0243 30.3509 16.0278 30.5026 16.1597C31.2462 16.8048 31.6665 17.7192 31.6675 18.6943C31.6675 19.2003 31.5322 19.7615 31.302 20.1999C31.2438 20.3107 31.106 20.5422 31.077 20.5777C31.0694 20.5876 31.0261 20.6431 30.9832 20.7008C30.8378 20.8965 30.6062 21.1355 30.428 21.2783C30.3823 21.3139 30.3345 21.352 30.3205 21.3632C30.2483 21.4212 30.0903 21.5245 29.97 21.5947C29.3945 21.9272 28.7646 22.0833 28.0827 22.0636C27.3984 22.0428 26.8191 21.8617 26.222 21.4778C26.1941 21.4604 26.1638 21.4396 26.1525 21.4308C26.1424 21.4222 26.0968 21.3878 26.0514 21.3534C25.8338 21.1873 25.6287 20.9927 25.4947 20.8239C25.4707 20.7932 25.4403 20.7574 25.4278 20.7441C25.3657 20.68 25.1557 20.3489 25.0633 20.1716C24.9608 19.9722 24.8446 19.6398 24.7888 19.3837C24.7002 18.9787 24.6953 18.4839 24.7749 18.0666C24.9775 17.0053 25.6908 16.0993 26.6925 15.634C27.0482 15.4679 27.3604 15.3816 27.8096 15.3224C27.9526 15.3039 28.4343 15.3077 28.6 15.3274Z" fill="#D83F04"/>
<path d="M59.5488 13.0165L67.776 7.66314C67.8992 7.57462 67.9609 7.50287 67.9609 7.44765C67.9609 7.35912 67.8713 7.315 67.6921 7.315H65.4926C65.3919 7.315 65.2968 7.34261 65.2072 7.39784L58.6925 11.6575L56.0059 7.39784C55.9724 7.34261 55.9109 7.315 55.8213 7.315H48.2486C47.9689 7.315 47.829 7.39784 47.829 7.56351C47.829 7.58571 48.9652 9.39219 51.2376 12.9835L43.0436 18.3369C42.9318 18.4143 42.8757 18.486 42.8757 18.5524C42.8757 18.6409 42.9653 18.685 43.1443 18.685H45.2935C45.3942 18.685 45.4895 18.6574 45.5791 18.6022L52.1106 14.3425L54.814 18.6022C54.8475 18.6574 54.9147 18.685 55.0154 18.685H62.5374C62.8063 18.685 62.9405 18.6022 62.9405 18.4365C62.9405 18.3921 61.81 16.5856 59.5488 13.0165Z" fill="white"/>
<path d="M85.5959 13.4808C87.4766 13.4808 89.027 12.8784 90.2471 11.674C91.053 10.9006 91.4558 10.0828 91.4558 9.22109C91.4558 8.55811 91.1648 8.0554 90.5828 7.71268C90.1239 7.44765 89.5251 7.315 88.7863 7.315H74.3632C74.1615 7.315 74.0272 7.38674 73.9601 7.53048C70.6579 14.8233 69.0068 18.4917 69.0068 18.5358C69.0068 18.6352 69.0853 18.685 69.2418 18.685H75.2698C75.4712 18.685 75.6055 18.6133 75.6726 18.4695L79.82 9.27064H83.2621C84.1016 9.27064 84.5215 9.51943 84.5215 10.0167C84.5215 10.0939 84.4933 10.2154 84.4376 10.3814C84.2919 10.7238 83.9841 11.0056 83.5139 11.2266C83.0997 11.4144 82.6801 11.5084 82.2545 11.5084H80.0885C79.8649 11.5084 79.7304 11.5801 79.6857 11.7239L78.9973 13.2653C78.9862 13.2761 78.9805 13.2983 78.9805 13.3314C78.9805 13.431 79.0533 13.4808 79.1987 13.4808H85.5959Z" fill="white"/>
<path d="M106.387 18.685C106.589 18.685 106.723 18.6133 106.79 18.4695L107.479 16.9446C107.49 16.9338 107.496 16.9116 107.496 16.8785C107.496 16.7789 107.423 16.7294 107.277 16.7294H100.443C99.6039 16.7294 99.184 16.4476 99.184 15.8839C99.184 15.5304 99.369 14.9448 99.7382 14.127L102.71 7.53048C102.721 7.51939 102.727 7.49719 102.727 7.46416C102.727 7.36481 102.654 7.315 102.509 7.315H96.1114C95.91 7.315 95.7758 7.38674 95.7086 7.53048L93.106 13.3148C92.7029 14.199 92.5015 15.0111 92.5015 15.7513C92.5015 16.7126 92.8206 17.4476 93.4584 17.9557C94.0519 18.4419 94.8467 18.685 95.8429 18.685H106.387Z" fill="white"/>
<path d="M120.547 18.685C122.17 18.685 123.737 18.1049 125.248 16.9446C126.659 15.8509 127.705 14.5358 128.388 13C128.836 12.0165 129.06 11.1161 129.06 10.2983C129.06 9.31503 128.74 8.56353 128.103 8.0443C127.509 7.5581 126.698 7.315 125.668 7.315H117.037C115.392 7.315 113.819 7.88946 112.319 9.03864C110.942 10.0996 109.901 11.4198 109.196 13C108.76 13.9835 108.541 14.8674 108.541 15.6519C108.541 16.6354 108.86 17.3978 109.499 17.9392C110.081 18.4365 110.886 18.685 111.916 18.685H120.547ZM122.31 10.1326C122.31 10.4642 122.131 11.0444 121.772 11.873L120.95 13.6795C120.737 14.1435 120.53 14.5469 120.328 14.8896C120.138 15.2209 119.948 15.4971 119.757 15.7182C119.175 16.3923 118.493 16.7294 117.709 16.7294H116.231C115.526 16.7294 115.174 16.4253 115.174 15.8176C115.174 15.3536 115.398 14.6408 115.845 13.6795L116.668 11.873C116.858 11.4531 117.037 11.0939 117.205 10.7956C117.384 10.4972 117.552 10.2598 117.709 10.0828C118.19 9.54135 118.817 9.27064 119.59 9.27064H121.067C121.896 9.27064 122.31 9.55813 122.31 10.1326Z" fill="white"/>
<path d="M136.385 18.685C136.576 18.685 136.704 18.6133 136.771 18.4695C140.073 11.1767 141.725 7.50829 141.725 7.46416C141.725 7.36481 141.657 7.315 141.523 7.315H135.445C135.254 7.315 135.126 7.38674 135.059 7.53048C131.757 14.8233 130.105 18.4917 130.105 18.5358C130.105 18.6352 130.178 18.685 130.324 18.685H136.385Z" fill="white"/>
<path d="M154.339 9.27064H159.191C159.393 9.27064 159.527 9.20458 159.594 9.07193C160.065 8.0332 160.3 7.49719 160.3 7.46416C160.3 7.36481 160.227 7.315 160.081 7.315H143.878C143.677 7.315 143.543 7.38674 143.475 7.53048C143.005 8.58004 142.77 9.11065 142.77 9.12148C142.77 9.2211 142.849 9.27064 143.005 9.27064H147.69C144.914 15.4364 143.526 18.5247 143.526 18.5358C143.526 18.6352 143.593 18.685 143.727 18.685H149.805C149.996 18.685 150.124 18.6133 150.192 18.4695L154.339 9.27064Z" fill="white"/>
</svg>
