<svg width="40" height="40" viewBox="0 0 40 40" fill="none" xmlns="http://www.w3.org/2000/svg">
<path d="M20.1723 6.17705C27.9143 6.17705 34.29 12.5528 34.29 20.2947C34.29 28.0936 27.9143 34.4123 20.1723 34.4123C12.3735 34.4123 6.05469 28.0936 6.05469 20.2947C6.05469 12.5528 12.3735 6.17705 20.1723 6.17705ZM26.6619 15.7975C26.7188 15.6268 26.7188 15.456 26.6619 15.2283C26.6619 15.1144 26.548 14.9437 26.4911 14.8867C26.3203 14.7159 26.0357 14.7159 25.9219 14.7159C25.4095 14.7159 24.5556 15.0006 20.6277 16.6514C19.2615 17.2207 16.5291 18.3592 12.4304 20.1808C11.7473 20.4655 11.4057 20.6932 11.3488 20.9778C11.2919 21.4332 12.0319 21.604 12.8858 21.8886C13.6258 22.1163 14.5936 22.401 15.1059 22.401C15.5613 22.401 16.0737 22.2302 16.6429 21.8317C20.457 19.2131 22.4494 17.9038 22.5632 17.9038C22.6771 17.9038 22.7909 17.8469 22.8479 17.9038C22.9617 18.0177 22.9617 18.1315 22.9048 18.1884C22.8479 18.4731 19.2615 21.7748 19.0338 22.0025C18.2369 22.7994 17.326 23.3118 18.7492 24.2226C19.9446 25.0196 20.6277 25.5319 21.8801 26.3289C22.6771 26.8412 23.3033 27.4674 24.1002 27.4104C24.4987 27.3535 24.8972 27.012 25.068 25.9304C25.5803 23.4826 26.4911 18.0177 26.6619 15.7975Z" fill="#A8A8A8"/>
</svg>
